<svg xmlns="http://www.w3.org/2000/svg" style="display: none;">
  
    <symbol id="icon-cancel-circled" viewBox="0 0 512 512">
      <path d="m256 41c59 0 110 21 152 63c42 42 63 93 63 152c0 59-21 110-63 152c-42 42-93 63-152 63c-59 0-110-21-152-63c-42-42-63-93-63-152c0-59 21-110 63-152c42-42 93-63 152-63m44 215c0 0 79-79 79-79c0 0-44-44-44-44c0 0-79 78-79 78c0 0-78-78-78-78c0 0-45 44-45 44c0 0 79 79 79 79c0 0-79 78-79 78c0 0 45 44 45 44c0 0 78-78 78-78c0 0 79 78 79 78c0 0 44-44 44-44c0 0-79-78-79-78"/>
    </symbol>
  
    <symbol id="icon-cancel" viewBox="0 0 512 512">
      <path d="m367 336c6 6 9 13 9 22c0 8-3 16-9 22c-6 5-13 8-22 8c-8 0-16-3-22-8c0 0-68-78-68-78c0 0-67 78-67 78c-6 5-14 8-22 8c-9 0-16-3-22-8c-6-6-8-14-8-22c0-9 2-16 8-22c0 0 71-80 71-80c0 0-71-81-71-81c-6-6-8-13-8-22c0-8 2-16 8-22c6-5 13-8 22-8c8 0 16 3 22 8c0 0 67 78 67 78c0 0 68-78 68-78c6-5 14-8 22-8c9 0 16 3 22 8c6 6 9 14 9 22c0 9-3 16-9 22c0 0-71 81-71 81c0 0 71 80 71 80"/>
    </symbol>
  
    <symbol id="icon-chart-area" viewBox="0 0 512 512">
      <path d="m499 60c5-7 8-6 8 2c0 0 0 394 0 394c0 0-494 0-494 0c-4 0-6-2-7-4c-1-2-1-5 2-9c0 0 118-147 118-147c7-8 14-8 20-1c0 0 38 34 38 34c4 2 7 4 11 3c4 0 7-2 9-5c0 0 81-122 81-122c5-9 12-10 19-2c0 0 57 53 57 53c7 7 14 6 20-2c0 0 118-194 118-194"/>
    </symbol>
  
    <symbol id="icon-clock-outline" viewBox="0 0 512 512">
      <path d="m110 263c0-24 5-47 17-68c11-21 26-39 46-52c19-14 41-22 65-25l0-10c0-5 2-10 5-13c4-4 8-5 13-5c5 0 9 1 12 5c4 3 6 8 6 13l0 10c24 3 46 12 67 26l11-8c2-2 6-3 10-3c5 0 9 1 13 5c3 3 5 7 5 12c0 6-2 11-7 15l-5 4c23 27 34 59 34 94c0 20-4 39-11 57c-8 18-19 34-32 47c-13 13-28 23-46 31c-18 8-37 12-57 12c-27 0-51-7-74-20c-22-13-40-31-53-54c-13-22-19-46-19-73z m23-1c0 22 6 43 17 62c11 19 25 34 44 45c19 11 40 17 62 17c22 0 43-6 62-17c19-11 34-26 45-45c11-19 16-40 16-62c0-34-12-62-36-86c-24-24-53-36-87-36c-23 0-43 5-62 16c-19 11-34 26-45 44c-11 19-16 40-16 62z m81-69c0-5 1-9 5-12c3-4 8-6 13-6c3 0 7 1 10 3c3 2 5 5 7 9l20 55l47-23c2-1 5-1 7-1c5 0 9 1 13 4c3 4 5 8 5 13c0 4-1 7-3 10c-2 3-4 5-7 7l-64 31c-3 1-6 1-8 1c-4 0-7-1-10-3c-3-3-6-5-7-9l-27-73c-1-1-1-3-1-6z"/>
    </symbol>
  
    <symbol id="icon-search" viewBox="0 0 512 512">
      <path d="m493 416l-125-125c18-29 29-62 29-99 0-106-86-192-192-192-106 0-192 86-192 192 0 106 86 192 192 192 36 0 70-11 99-28l125 124c9 9 23 9 32 0l32-32c9-9 9-23 0-32z m-288-96c-71 0-128-57-128-128 0-71 57-128 128-128 70 0 128 57 128 128 0 71-58 128-128 128z"/>
    </symbol>
  
    <symbol id="icon-mail" viewBox="0 0 512 512">
      <path d="m32 96l0 320 448 0 0-320z m384 32l-160 132-160-132z m-352 32l126 96-126 96z m32 224l127-103 33 25 33-25 127 103z m352-32l-126-96 126-96z"/>
    </symbol>
  
    <symbol id="icon-zap" viewBox="0 0 512 512">
      <path d="m416 224l-128 0 96-224-288 288 128 0-96 224z"/>
    </symbol>
  
    <symbol id="icon-play" viewBox="0 0 512 512">
      <path d="m394 256c0-4-2-8-6-10l-252-146c-2-1-4-2-7-2c-6 0-11 5-11 12c0 0 0 1 0 1l0 0l0 293l0 0c1 5 5 10 11 10c2 0 4-1 6-2l0 0l253-146l0 0c4-2 6-6 6-10z"/>
    </symbol>
  
    <symbol id="icon-plus-circle" viewBox="0 0 512 512">
      <path d="m384 274l0-36c0-5-2-10-5-13c-4-4-8-6-13-6l-73 0l0-73c0-5-2-9-6-13c-3-3-8-5-13-5l-36 0c-5 0-10 2-13 5c-4 4-6 8-6 13l0 73l-73 0c-5 0-9 2-13 6c-3 3-5 8-5 13l0 36c0 5 2 10 5 13c4 4 8 6 13 6l73 0l0 73c0 5 2 9 6 13c3 3 8 5 13 5l36 0c5 0 10-2 13-5c4-4 6-8 6-13l0-73l73 0c5 0 9-2 13-6c3-3 5-8 5-13z m91-18c0 40-9 77-29 110c-20 34-46 60-80 80c-33 20-70 29-110 29c-40 0-77-9-110-29c-34-20-60-46-80-80c-20-33-29-70-29-110c0-40 9-77 29-110c20-34 46-60 80-80c33-20 70-29 110-29c40 0 77 9 110 29c34 20 60 46 80 80c20 33 29 70 29 110z"/>
    </symbol>
  
    <symbol id="icon-plus" viewBox="0 0 512 512">
      <path d="m457 210l0 55c0 8-3 14-8 20c-5 5-12 8-19 8l-119 0l0 118c0 8-3 15-8 20c-5 5-12 8-20 8l-54 0c-8 0-15-3-20-8c-5-5-8-12-8-20l0-118l-119 0c-7 0-14-3-19-8c-5-6-8-12-8-20l0-55c0-7 3-14 8-19c5-5 12-8 19-8l119 0l0-119c0-8 3-14 8-19c5-6 12-8 20-8l54 0c8 0 15 2 20 8c5 5 8 11 8 19l0 119l119 0c7 0 14 3 19 8c5 5 8 12 8 19z"/>
    </symbol>
  
    <symbol id="icon-play-circle" viewBox="0 0 512 512">
      <path d="m256 37c40 0 77 9 110 29c34 20 60 46 80 80c20 33 29 70 29 110c0 40-9 77-29 110c-20 34-46 60-80 80c-33 20-70 29-110 29c-40 0-77-9-110-29c-34-20-60-46-80-80c-20-33-29-70-29-110c0-40 9-77 29-110c20-34 46-60 80-80c33-20 70-29 110-29z m110 235c6-4 9-9 9-16c0-7-3-12-9-16l-156-91c-6-4-12-4-18 0c-6 3-9 9-9 16l0 182c0 7 3 13 9 16c3 2 6 3 9 3c3 0 6-1 9-3z"/>
    </symbol>
  
    <symbol id="icon-export" viewBox="0 0 512 512">
      <path d="m384 404c0 0 0-28 0-28c0 0 51-42 51-42c0 0 0 96 0 96c0 7-2 13-7 18c-6 5-12 8-18 8c0 0-384 0-384 0c-7 0-13-3-18-8c-5-5-8-11-8-18c0 0 0-282 0-282c0-7 2-13 7-18c5-5 11-7 19-7c0 0 147 0 147 0c-11 8-21 16-30 25c-9 9-16 15-20 20c0 0-5 6-5 6c0 0-67 0-67 0c0 0 0 230 0 230c0 0 333 0 333 0m-42-178c-57 0-98 7-124 21c-26 14-53 45-82 93c0-3 0-7 1-11c0-5 2-15 4-29c3-14 7-28 12-40c4-13 12-27 22-43c10-16 22-29 36-40c14-12 32-21 55-29c23-8 48-12 76-12c0 0 0-80 0-80c0 0 170 128 170 128c0 0-170 133-170 133c0 0 0-91 0-91"/>
    </symbol>
  
    <symbol id="icon-gauge" viewBox="0 0 512 512">
      <path d="m208 344c11-19 48-68 109-145c62-78 95-116 100-113c4 2-13 50-49 142c-37 93-61 149-71 167c-17 30-40 36-70 19c-29-17-36-41-19-70m48-194c-57 0-106 21-145 65c-40 43-60 96-60 159c0 10 1 18 1 23c1 8-1 14-6 19c-5 5-10 8-17 9c-7 1-13-1-19-6c-5-5-8-11-9-18c0-2 0-7 0-13c-1-6-1-11-1-14c0-77 25-143 74-196c50-53 110-80 182-80c25 0 47 3 69 10c0 0-36 44-36 44c-14-2-25-2-33-2m185 31c47 53 71 117 71 193c0 13 0 22-1 28c-1 7-3 13-8 17c-5 5-11 7-18 7c0 0-2 0-2 0c-7-1-13-5-18-10c-4-6-6-12-5-19c0-4 1-12 1-23c0-51-14-97-41-137c2-5 5-14 10-27c5-12 9-22 11-29"/>
    </symbol>
  
    <symbol id="icon-install" viewBox="0 0 512 512">
      <path d="m478 279c8 17 11 34 7 49c0 0-17 94-17 94c-1 7-4 13-10 18c-6 5-12 7-20 7c0 0-364 0-364 0c-8 0-15-2-20-7c-6-5-9-11-10-18c0 0-18-94-18-94c-2-17 0-34 8-49c0 0 80-192 80-192c8-16 20-24 37-24c0 0 54 0 54 0c0 0-11 105-11 105c0 0-68 0-68 0c0 0 130 107 130 107c0 0 131-107 131-107c0 0-70 0-70 0c0 0-9-105-9-105c0 0 52 0 52 0c17 0 30 8 38 24c0 0 80 192 80 192m-35 67c1-7-1-14-5-19c-4-6-10-9-17-9c0 0-330 0-330 0c-8 0-13 3-17 9c-5 5-6 12-6 19c0 0 8 38 8 38c0 8 4 14 9 19c6 5 12 8 19 8c0 0 303 0 303 0c8 0 15-3 20-8c6-5 9-11 10-19c0 0 6-38 6-38"/>
    </symbol>
  
    <symbol id="icon-plus-squared" viewBox="0 0 512 512">
      <path d="m410 51c14 0 26 5 36 15c10 10 15 22 15 36c0 0 0 308 0 308c0 13-5 25-15 35c-10 11-22 16-36 16c0 0-308 0-308 0c-13 0-25-5-35-16c-11-10-16-22-16-35c0 0 0-308 0-308c0-14 5-26 16-36c10-10 22-15 35-15c0 0 308 0 308 0m-26 231c0 0 0-52 0-52c0 0-102 0-102 0c0 0 0-102 0-102c0 0-52 0-52 0c0 0 0 102 0 102c0 0-102 0-102 0c0 0 0 52 0 52c0 0 102 0 102 0c0 0 0 102 0 102c0 0 52 0 52 0c0 0 0-102 0-102c0 0 102 0 102 0"/>
    </symbol>
  
    <symbol id="icon-upload" viewBox="0 0 512 512">
      <path d="m256 38c0 0 133 125 133 125c0 0-84 0-84 0c0 0 0 131 0 131c0 0-97 0-97 0c0 0 0-131 0-131c0 0-85 0-85 0c0 0 133-125 133-125m239 296c7 3 11 9 14 16c3 8 4 15 2 21c0 0-14 79-14 79c-2 6-6 12-12 16c-6 5-13 7-20 7c0 0-418 0-418 0c-8 0-14-2-21-7c-6-4-9-10-11-16c0 0-14-79-14-79c-4-17 2-29 16-37c0 0 81-55 81-55c0 0 50 0 50 0c0 0-87 66-87 66c0 0 91 0 91 0c3 0 5 1 7 4c0 0 20 57 20 57c0 0 154 0 154 0c0 0 20-57 20-57c3-3 5-4 6-4c0 0 91 0 91 0c0 0-87-66-87-66c0 0 51 0 51 0c0 0 81 55 81 55"/>
    </symbol>
  
    <symbol id="icon-bubble-3" viewBox="0 0 512 512">
      <path d="m139 192c17 0 32 14 32 32c0 18-15 32-32 32c-18 0-32-14-32-32c0-18 14-32 32-32z m106 0c18 0 32 14 32 32c0 18-14 32-32 32c-17 0-32-14-32-32c0-18 15-32 32-32z m107 0c18 0 32 14 32 32c0 18-14 32-32 32c-18 0-32-14-32-32c0-18 14-32 32-32z m75-171l-363 0c-35 0-64 29-64 64l0 256c0 36 43 43 64 43l0 128l192-128l171 0c35 0 64-29 64-64l0-235c0-35-29-64-64-64z m21 299c0 12-10 21-21 21l-192 0l-128 107l0-107l-43 0c-12 0-21-9-21-21l0-235c0-11 9-21 21-21l363 0c11 0 21 10 21 21z"/>
    </symbol>
  
    <symbol id="icon-settings" viewBox="0 0 512 512">
      <path d="m486 203l-49-10c-2-7-5-14-8-21l27-41c9-13 7-30-4-41l-30-30c-7-7-15-10-23-10c-6 0-12 2-18 6l-41 27c-7-3-14-6-21-8l-10-49c-3-15-16-26-31-26l-44 0c-15 0-28 11-31 26l-10 49c-7 2-14 5-21 8l-41-27c-6-4-12-6-18-6c-8 0-16 3-23 10l-30 30c-11 11-13 28-4 41l27 41c-3 7-6 14-8 21l-49 10c-15 3-26 16-26 31l0 44c0 15 11 28 26 31l49 10c2 7 5 14 8 21l-27 41c-9 13-7 30 4 41l30 30c7 7 15 10 23 10c6 0 12-2 18-6l41-27c7 3 14 6 21 8l10 49c3 15 16 26 31 26l44 0c15 0 28-11 31-26l10-49c7-2 14-5 21-8l41 27c6 4 12 6 18 6c8 0 16-3 23-10l30-30c11-11 13-28 4-41l-27-41c3-7 6-14 8-21l49-10c15-3 26-16 26-31l0-44c0-15-11-28-26-31z m-55 85c-11 2-20 10-24 20c-2 6-4 12-7 18c-5 10-4 22 2 31l28 42l-31 31l-42-28c-5-4-11-5-17-5c-5 0-10 1-14 3c-6 3-12 5-18 7c-10 4-18 13-20 24l-10 49l-44 0l-10-49c-2-11-10-20-20-24c-6-2-12-4-18-7c-4-2-9-3-14-3c-6 0-12 1-17 5l-42 28l-31-31l28-42c6-9 7-21 2-31c-3-6-5-12-7-18c-4-10-13-18-24-20l-49-10l0-44l49-10c11-2 20-10 24-20c2-6 4-12 7-18c5-10 4-22-2-31l-28-42l31-31l42 28c5 4 11 5 17 5c5 0 10-1 14-3c6-2 12-5 18-7c10-4 18-13 20-24l10-49l44 0l10 49c2 11 10 20 20 24c6 2 12 4 18 7c4 2 9 3 14 3c6 0 12-1 17-5l42-28l31 31l-28 42c-6 9-7 21-2 31c2 6 5 12 7 18c4 10 13 18 24 20l49 10l0 44z m-175-144c-62 0-112 50-112 112c0 62 50 112 112 112c62 0 112-50 112-112c0-62-50-112-112-112z m0 210c-54 0-98-44-98-98c0-54 44-98 98-98c54 0 98 44 98 98c0 54-44 98-98 98z m0-162c-35 0-64 29-64 64c0 35 29 64 64 64c35 0 64-29 64-64c0-35-29-64-64-64z m0 112c-26 0-48-21-48-48c0-26 22-48 48-48c26 0 48 22 48 48c0 27-22 48-48 48z"/>
    </symbol>
  
    <symbol id="icon-bullseye" viewBox="0 0 512 512">
      <path d="m329 256c0 20-7 37-21 52c-15 14-32 21-52 21c-20 0-37-7-52-21c-14-15-21-32-21-52c0-20 7-37 21-52c15-14 32-21 52-21c20 0 37 7 52 21c14 15 21 32 21 52z m37 0c0-30-11-56-32-78c-22-21-48-32-78-32c-30 0-56 11-78 32c-21 22-32 48-32 78c0 30 11 56 32 78c22 21 48 32 78 32c30 0 56-11 78-32c21-22 32-48 32-78z m36 0c0 40-14 75-43 103c-28 29-63 43-103 43c-40 0-75-14-103-43c-29-28-43-63-43-103c0-40 14-75 43-103c28-29 63-43 103-43c40 0 75 14 103 43c29 28 43 63 43 103z m37 0c0-25-5-48-15-71c-9-23-22-42-39-58c-16-17-35-30-58-39c-23-10-46-15-71-15c-25 0-48 5-71 15c-23 9-42 22-58 39c-17 16-30 35-39 58c-10 23-15 46-15 71c0 25 5 48 15 71c9 23 22 42 39 58c16 17 35 30 58 39c23 10 46 15 71 15c25 0 48-5 71-15c23-9 42-22 58-39c17-16 30-35 39-58c10-23 15-46 15-71z m36 0c0 40-9 77-29 110c-20 34-46 60-80 80c-33 20-70 29-110 29c-40 0-77-9-110-29c-34-20-60-46-80-80c-20-33-29-70-29-110c0-40 9-77 29-110c20-34 46-60 80-80c33-20 70-29 110-29c40 0 77 9 110 29c34 20 60 46 80 80c20 33 29 70 29 110z"/>
    </symbol>
  
    <symbol id="icon-camera-retro" viewBox="0 0 512 512">
      <path d="m265 238c0-3-1-5-2-7c-2-2-4-2-7-2c-13 0-23 4-32 13c-9 9-14 20-14 32c0 3 1 5 3 7c2 2 4 2 6 2c3 0 5 0 7-2c2-2 3-4 3-7c0-7 2-14 8-19c5-5 11-8 19-8c3 0 5-1 7-3c1-1 2-4 2-6z m64 37c0 20-7 37-21 52c-15 14-32 21-52 21c-20 0-37-7-52-21c-14-15-21-32-21-52c0-20 7-38 21-52c15-14 32-21 52-21c20 0 37 7 52 21c14 14 21 32 21 52z m-292 164l438 0l0-37l-438 0z m329-164c0-30-11-56-32-78c-22-21-48-32-78-32c-30 0-56 11-78 32c-21 22-32 48-32 78c0 30 11 56 32 77c22 22 48 33 78 33c30 0 56-11 78-33c21-21 32-47 32-77z m-293-184l110 0l0-36l-110 0z m-36 55l438 0l0-73l-236 0l-18 37l-184 0z m475-73l0 366c0 10-4 19-11 26c-7 7-15 10-26 10l-438 0c-11 0-19-3-26-10c-7-7-11-16-11-26l0-366c0-10 4-19 11-26c7-7 15-10 26-10l438 0c11 0 19 3 26 10c7 7 11 16 11 26z"/>
    </symbol>
  
    <symbol id="icon-stopwatch" viewBox="0 0 512 512">
      <path d="m277 86l0-22l11 0c6 0 11-5 11-11l0-42c0-6-5-11-11-11l-64 0c-6 0-11 5-11 11l0 42c0 6 5 11 11 11l11 0l0 22c-20 2-38 7-55 14l-23-22l-39-39l-75 75l49 49c-31 37-49 84-49 136c0 117 95 213 213 213c118 0 213-96 213-213c0-111-84-202-192-213z m-42-65l42 0l0 22l-42 0z m-162 93l45-45l25 25l-45 45z m183 355c-94 0-171-76-171-170c0-94 77-171 171-171c94 0 171 77 171 171c0 94-77 170-171 170z m-17-267c-8-9-22-9-30 0c-8 8-8 22 0 30l42 42l-56 78c-6 10-2 23 8 29c3 2 7 3 10 3c8 0 15-4 19-11l64-92c5-9 3-19-4-26z"/>
    </symbol>
  
    <symbol id="icon-user" viewBox="0 0 512 512">
      <path d="m256 320c0 0-171 0-235 149c0 0 107 43 235 43c128 0 235-43 235-43c-64-149-235-149-235-149z m0-21c64 0 107-64 107-171c0-107-107-107-107-107c0 0-107 0-107 107c0 107 43 171 107 171z"/>
    </symbol>
  
    <symbol id="icon-user-outline" viewBox="0 0 512 512">
      <path d="m505 426c-36-85-105-125-158-143c24-33 37-81 37-140c1-99-81-126-124-127c-44 0-126 25-127 125c0 59 12 107 35 140c-54 18-123 56-161 141l-9 20l21 8c4 2 109 45 237 46c127 1 233-40 237-41l21-8z m-246-367c9 0 83 4 83 84c-1 64-18 112-48 133l-37 26l-36-27c-29-21-46-70-45-134c0-80 75-82 83-82z m-3 394c-86-1-163-22-199-34c39-69 105-95 156-106l44-9l45 10c50 11 116 39 154 108c-36 12-113 32-200 31z"/>
    </symbol>
  
    <symbol id="icon-pin" viewBox="0 0 512 512">
      <path d="m256 0c-107 0-194 87-194 194c0 108 152 318 194 318c31 0 194-210 194-318c0-107-87-194-194-194z m-1 290c-54 0-99-44-99-99c0-54 45-99 99-99c55 0 99 45 99 99c0 55-44 99-99 99z"/>
    </symbol>
  
    <symbol id="icon-down-circled" viewBox="0 0 512 512">
      <path d="m256 20c65 0 120 24 166 70c46 46 70 101 70 166c0 65-24 120-70 166c-46 46-101 70-166 70c-65 0-120-24-166-70c-46-46-70-101-70-166c0-65 24-120 70-166c46-46 101-70 166-70m0 420c51 0 94-18 130-54c36-36 54-79 54-130c0-51-18-95-54-131c-36-35-79-53-130-53c-51 0-94 18-130 53c-36 36-54 80-54 131c0 51 18 94 54 130c36 36 79 54 130 54m46-283c0 0 0 105 0 105c0 0 57 0 57 0c0 0-103 97-103 97c0 0-103-97-103-97c0 0 57 0 57 0c0 0 0-105 0-105c0 0 92 0 92 0"/>
    </symbol>
  
    <symbol id="icon-graph-bar" viewBox="0 0 512 512">
      <path d="m236 308l-73 0c-4 0-7 4-7 8l0 112c0 4 3 8 7 8l73 0c4 0 8-4 8-8l0-112c0-5-4-8-8-8z m113-232l-73 0c-4 0-8 4-8 8l0 344c0 4 4 8 8 8l73 0c4 0 7-4 7-8l0-344c0-4-3-8-7-8z m113 105l-72 0c-5 0-8 3-8 7l0 240c0 4 3 8 8 8l72 0c4 0 8-4 8-8l0-240c0-4-4-7-8-7z m-340 0l-72 0c-4 0-8 3-8 7l0 240c0 4 4 8 8 8l72 0c5 0 8-4 8-8l0-240c0-4-3-7-8-7z"/>
    </symbol>
  
    <symbol id="icon-graph-horizontal" viewBox="0 0 512 512">
      <path d="m442 210l-372 0c-4 0-8 3-8 8l0 77c0 4 4 8 8 8l372 0c4 0 8-4 8-8l0-77c0-5-4-8-8-8z m-154-119l0 0l-218 0c-4 0-8 4-8 8l0 77c0 5 4 8 8 8l218 0l0 0c3-1 6-4 6-8l0-77c0-4-3-7-6-8z m49 237l-267 0c-4 0-8 3-8 8l0 77c0 4 4 8 8 8l267 0c5 0 8-4 8-8l0-77c0-5-3-8-8-8z"/>
    </symbol>
  
    <symbol id="icon-graph-pie" viewBox="0 0 512 512">
      <path d="m277 66c-3 0-6 3-6 7c0 0 0 0 0 1l0 0l0 161c0 3 3 6 6 6l161 0l0 0c1 0 1 0 1 0c4 0 7-3 7-6c-1-93-76-168-169-169z m130 208c0-4-3-7-7-7l-148 0c-4 0-7-3-7-7l0-147l0 0c0-1 0-1 0-1c0-4-3-7-6-7c-1 0-1 0-1 0l0 0c0 0-1 0-2 0c-94 0-170 76-170 171c0 94 76 170 170 170c95 0 171-76 171-170c0-1 0-2 0-2c0 0 0 0 0 0z"/>
    </symbol>
  
    <symbol id="icon-check-mark-circle" viewBox="0 0 512 512">
      <path d="m403 210c0-6-1-10-5-13l-26-26c-3-4-8-6-13-6c-5 0-9 2-12 6l-117 116l-65-64c-3-4-7-6-12-6c-5 0-10 2-13 6l-26 25c-4 4-5 8-5 13c0 6 1 10 5 13l103 104c4 3 8 5 13 5c5 0 10-2 13-5l155-155c4-4 5-8 5-13z m72 46c0 40-9 77-29 110c-20 34-46 60-80 80c-33 20-70 29-110 29c-40 0-77-9-110-29c-34-20-60-46-80-80c-20-33-29-70-29-110c0-40 9-77 29-110c20-34 46-60 80-80c33-20 70-29 110-29c40 0 77 9 110 29c34 20 60 46 80 80c20 33 29 70 29 110z"/>
    </symbol>
  
    <symbol id="icon-check-mark-circle-two" viewBox="0 0 512 512">
      <path d="m371 232l-120 121c-4 3-8 5-13 5c-5 0-10-2-13-5l-84-84c-4-4-6-8-6-13c0-5 2-9 6-13l29-29c4-4 8-5 13-5c5 0 9 1 13 5l42 42l78-79c4-3 8-5 13-5c5 0 9 2 13 5l29 30c4 3 6 7 6 12c0 5-2 10-6 13z m40 24c0-28-7-54-20-78c-14-24-33-43-57-57c-24-13-50-20-78-20c-28 0-54 7-78 20c-24 14-43 33-57 57c-13 24-20 50-20 78c0 28 7 54 20 78c14 24 33 43 57 57c24 13 50 20 78 20c28 0 54-7 78-20c24-14 43-33 57-57c13-24 20-50 20-78z m64 0c0 40-9 77-29 110c-20 34-46 60-80 80c-33 20-70 29-110 29c-40 0-77-9-110-29c-34-20-60-46-80-80c-20-33-29-70-29-110c0-40 9-77 29-110c20-34 46-60 80-80c33-20 70-29 110-29c40 0 77 9 110 29c34 20 60 46 80 80c20 33 29 70 29 110z"/>
    </symbol>
  
    <symbol id="icon-chevron-down-circle" viewBox="0 0 512 512">
      <path d="m269 371l130-130c3-3 5-7 5-12c0-5-2-10-5-13l-30-29c-3-4-7-6-12-6c-5 0-10 2-13 6l-88 87l-88-87c-3-4-8-6-13-6c-5 0-9 2-12 6l-30 29c-3 3-5 8-5 13c0 5 2 9 5 12l130 130c4 4 8 6 13 6c5 0 9-2 13-6z m206-115c0 40-9 77-29 110c-20 34-46 60-80 80c-33 20-70 29-110 29c-40 0-77-9-110-29c-34-20-60-46-80-80c-20-33-29-70-29-110c0-40 9-77 29-110c20-34 46-60 80-80c33-20 70-29 110-29c40 0 77 9 110 29c34 20 60 46 80 80c20 33 29 70 29 110z"/>
    </symbol>
  
    <symbol id="icon-chevron-down" viewBox="0 0 512 512">
      <path d="m479 201c0 10-4 19-11 26l-186 186c-7 7-16 11-26 11c-10 0-19-4-26-11l-186-186c-7-7-11-16-11-26c0-10 4-19 11-26l21-21c8-7 17-11 26-11c11 0 19 4 26 11l139 139l139-139c7-7 15-11 26-11c9 0 18 4 26 11l21 21c7 8 11 16 11 26z"/>
    </symbol>
  
    <symbol id="icon-check-mark" viewBox="0 0 512 512">
      <path d="m477 162c0 7-2 14-8 19l-206 207l-39 39c-6 5-12 8-20 8c-7 0-14-3-19-8l-142-142c-6-6-8-12-8-20c0-7 2-14 8-19l38-39c6-5 12-8 20-8c7 0 14 3 19 8l84 84l188-188c5-5 12-8 19-8c8 0 14 3 20 8l38 39c6 6 8 12 8 20z"/>
    </symbol>
  
    <symbol id="icon-align-justify" viewBox="0 0 512 512">
      <path d="m416 79l-320 0c-10 0-17 8-17 17l0 16c0 10 7 18 17 18l320 0c10 0 17-8 17-18l0-16c0-9-7-17-17-17z m0 101l-320 0c-10 0-17 8-17 17l0 16c0 10 7 18 17 18l320 0c10 0 17-8 17-18l0-16c0-9-7-17-17-17z m0 101l-320 0c-10 0-17 8-17 18l0 16c0 9 7 17 17 17l320 0c10 0 17-8 17-17l0-16c0-10-7-18-17-18z m0 101l-320 0c-10 0-17 8-17 18l0 16c0 9 7 17 17 17l320 0c10 0 17-8 17-17l0-16c0-10-7-18-17-18z"/>
    </symbol>
  
    <symbol id="icon-text-area" viewBox="0 0 512 512">
      <path d="m503 425l-512 0 0-324 512 0z m-476-37l439 0 0-251-439 0z m36-217l113 0 0 36-113 0z m147 0l67 0 0 36-67 0z m101 0l91 0 0 36-91 0z m-248 73l81 0 0 37-81 0z m113 0l113 0 0 37-113 0z m146 0l104 0 0 37-104 0z m-259 75l124 0 0 37-124 0z m161 0l90 0 0 37-90 0z m127 0l60 0 0 37-60 0z"/>
    </symbol>
  
    <symbol id="icon-drop-down" viewBox="0 0 512 512">
      <path d="m467 155l0 232-422 0 0-232 422 0m0-51l-422 0c-25 0-45 23-45 51l0 232c0 28 20 52 45 52l422 0c25 0 45-24 45-52l0-232c0-28-20-51-45-51z m-42 167c0 15-11 26-26 26-15 0-26-11-26-26 0-15 11-26 26-26 15 0 26 11 26 26z m-94 0c0 15-11 26-26 26-15 0-26-11-26-26 0-15 11-26 26-26 15 0 26 11 26 26z m-187 57c-6 0-12-3-16-7l-55-54c-8-9-8-23 0-32 9-9 24-9 32 0l55 54c8 9 8 23 0 32-5 4-11 7-16 7z m2-53l30 31-31 32-31-31z m0 53c-6 0-12-3-16-7-9-9-9-23 0-32l54-54c9-9 23-9 32 0 9 9 9 23 0 32l-55 54c-4 4-10 7-15 7z m-3-53l32 32-30 31-32-32z"/>
    </symbol>
  
    <symbol id="icon-text-field" viewBox="0 0 512 512">
      <path d="m467 153l0 232-422 0 0-232 422 0m0-51l-422 0c-25 0-45 23-45 51l0 232c0 29 20 52 45 52l422 0c25 0 45-23 45-52l0-232c0-28-20-51-45-51z m-246 79l2 42-5 0c-1-7-2-13-4-16-3-5-7-9-11-11-5-2-11-4-18-4l-25 0 0 137c0 11 1 18 3 21 4 4 9 6 16 6l6 0 0 5-76 0 0-5 6 0c8 0 13-3 16-7 2-3 3-10 3-20l0-137-21 0c-9 0-15 1-18 2-5 2-9 5-12 10-3 5-5 11-6 19l-5 0 2-42z m142 147c0 14-11 26-26 26-15 0-26-12-26-26 0-15 11-27 26-27 15 0 26 12 26 27z m-94 0c0 14-12 26-26 26-15 0-27-12-27-26 0-15 12-27 27-27 14 0 26 12 26 27z"/>
    </symbol>
  
    <symbol id="icon-clock" viewBox="0 0 512 512">
      <path d="m293 155l0 128c0 3-1 5-3 7c-2 2-4 3-7 3l-91 0c-3 0-5-1-7-3c-1-2-2-4-2-7l0-18c0-3 1-5 2-6c2-2 4-3 7-3l64 0l0-101c0-2 1-4 3-6c1-2 3-3 6-3l18 0c3 0 5 1 7 3c2 2 3 4 3 6z m118 101c0-28-7-54-20-78c-14-24-33-43-57-57c-24-13-50-20-78-20c-28 0-54 7-78 20c-24 14-43 33-57 57c-13 24-20 50-20 78c0 28 7 54 20 78c14 24 33 43 57 57c24 13 50 20 78 20c28 0 54-7 78-20c24-14 43-33 57-57c13-24 20-50 20-78z m64 0c0 40-9 77-29 110c-20 34-46 60-80 80c-33 20-70 29-110 29c-40 0-77-9-110-29c-34-20-60-46-80-80c-20-33-29-70-29-110c0-40 9-77 29-110c20-34 46-60 80-80c33-20 70-29 110-29c40 0 77 9 110 29c34 20 60 46 80 80c20 33 29 70 29 110z"/>
    </symbol>
  
    <symbol id="icon-info" viewBox="0 0 512 512">
      <path d="m318 0c17 0 29 5 38 14c9 9 14 21 14 35c0 17-7 32-20 45c-14 13-30 20-49 20c-16 0-29-5-38-14c-9-9-13-21-12-37c0-15 6-30 18-43c12-13 28-20 49-20m-105 512c-34 0-43-30-28-91c0 0 31-130 31-130c5-19 5-29 0-29c-4 0-13 3-28 9c-14 7-26 13-36 20c0 0-14-23-14-23c31-26 63-48 97-64c34-17 60-25 77-25c27 0 33 28 19 83c0 0-36 136-36 136c-6 22-5 33 3 33c15 0 35-10 60-31c0 0 16 21 16 21c-29 29-59 52-90 67c-31 16-55 24-71 24"/>
    </symbol>
  
    <symbol id="icon-integer-field" viewBox="0 0 512 512">
      <path d="m467 153l0 232-422 0 0-232 422 0m0-51l-422 0c-25 0-45 23-45 51l0 232c0 29 20 52 45 52l422 0c25 0 45-23 45-52l0-232c0-28-20-51-45-51z m-104 226c0 14-11 26-26 26-15 0-26-12-26-26 0-15 11-27 26-27 15 0 26 12 26 27z m-94 0c0 14-12 26-26 26-15 0-27-12-27-26 0-15 12-27 27-27 14 0 26 12 26 27z m-145 18c4 0 8-1 12-3 4-2 7-4 10-8 3-3 5-7 6-11 2-4 3-9 3-14 0-5-1-10-3-15-2-4-4-7-7-10-3-3-7-5-11-7-4-1-8-2-13-2l-15 0 0-6 39-52 8-8 0-1-13 1-39 0-9 24-6 0c0-3-1-7-1-10-1-4-1-8-2-11 0-4-1-7-1-11 0-3 0-6 0-9l90 0 0 7-39 51-10 11 0 0 8-2c7 1 14 2 19 5 6 2 11 5 15 9 4 4 7 9 9 15 2 5 3 11 3 17 0 8-2 15-5 21-3 6-7 12-12 16-5 5-11 8-18 10-6 3-13 4-21 4-3 0-7 0-11-1-4-1-8-1-12-2-4-1-7-3-11-4-3-1-6-3-8-5l7-21 4 0c1 1 2 3 4 5 2 1 3 3 5 5 2 2 3 4 5 5 2 2 3 4 5 5 1 1 3 1 6 1 2 1 5 1 9 1z"/>
    </symbol>
  
    <symbol id="icon-close" viewBox="0 0 512 512">
      <path d="m469 484c-2 0-5-1-7-3l-435-435c-4-4-4-10 0-14 5-4 11-4 15 0l434 434c4 4 4 11 0 15-2 2-4 3-7 3z m-424 0c-3 0-5-1-7-3-4-4-4-11 0-15l434-434c4-4 11-4 15 0 4 4 4 10 0 14l-435 435c-2 2-4 3-7 3z"/>
    </symbol>
  
    <symbol id="icon-close-thick" viewBox="0 0 512 512">
      <path d="m469 489c-4 0-8-2-11-5l-434-434c-6-6-6-16 0-22 6-6 16-6 22 0l434 435c6 6 6 15 0 21-3 3-7 5-11 5z m-424 0c-4 0-8-2-11-5-6-6-6-15 0-21l435-435c6-6 15-6 21 0 6 6 6 16 0 22l-434 434c-3 3-7 5-11 5z"/>
    </symbol>
  
    <symbol id="icon-dashboard" viewBox="0 0 512 512">
      <path d="m256 232c-31 0-56 25-56 56 0 31 25 56 56 56 31 0 56-25 56-56 0-4-1-8-2-12 41-48 104-122 138-164 12-14-1-28-16-16-43 35-116 97-163 138-4-1-9-2-13-2z m16-104c0-9-7-16-16-16-9 0-16 7-16 16 0 9 7 16 16 16 9 0 16-7 16-16z m96 128c0 9 7 16 16 16 9 0 16-7 16-16 0-9-7-16-16-16-9 0-16 7-16 16z m-176-128c-9 0-16 7-16 16 0 9 7 16 16 16 9 0 16-7 16-16 0-9-7-16-16-16z m-32 64c0-9-7-16-16-16-9 0-16 7-16 16 0 9 7 16 16 16 9 0 16-7 16-16z m-48 64c0 9 7 16 16 16 9 0 16-7 16-16 0-9-7-16-16-16-9 0-16 7-16 16z m224-112c0-9-7-16-16-16-9 0-16 7-16 16 0 9 7 16 16 16 9 0 16-7 16-16z m108 24l-34 45c4 14 6 28 6 43 0 88-72 160-160 160-88 0-160-72-160-160 0-88 72-160 160-160 33 0 64 10 89 27l40-30c-36-28-80-45-129-45-115 0-208 93-208 208 0 115 93 208 208 208 115 0 208-93 208-208 0-31-7-61-20-88z"/>
    </symbol>
  
    <symbol id="icon-rec" viewBox="0 0 512 512">
      <path d="m256 0c-141 0-256 115-256 256c0 141 115 256 256 256c141 0 256-115 256-256c0-141-115-256-256-256z m0 472c-119 0-216-97-216-216c0-119 97-216 216-216c119 0 216 97 216 216c0 119-97 216-216 216z m80-216c0 44-36 80-80 80c-44 0-80-36-80-80c0-44 36-80 80-80c44 0 80 36 80 80z"/>
    </symbol>
  
    <symbol id="icon-circle" viewBox="0 0 512 512">
      <path d="m475 256c0 40-9 77-29 110c-20 34-46 60-80 80c-33 20-70 29-110 29c-40 0-77-9-110-29c-34-20-60-46-80-80c-20-33-29-70-29-110c0-40 9-77 29-110c20-34 46-60 80-80c33-20 70-29 110-29c40 0 77 9 110 29c34 20 60 46 80 80c20 33 29 70 29 110z"/>
    </symbol>
  
    <symbol id="icon-chevron-right" viewBox="0 0 512 512">
      <path d="m405 238c0 10-3 18-10 26l-186 186c-7 7-16 10-26 10c-10 0-19-3-26-10l-22-22c-7-7-10-16-10-26c0-10 3-18 10-25l139-139l-139-139c-7-7-10-16-10-26c0-10 3-19 10-26l22-21c7-7 16-11 26-11c10 0 19 4 26 11l186 186c7 7 10 16 10 26z"/>
    </symbol>
  
    <symbol id="icon-chevron-left" viewBox="0 0 512 512">
      <path d="m303 449l-186-186c-7-7-10-15-10-25c0-11 3-19 10-26l186-186c7-7 16-11 26-11c10 0 19 4 26 11l22 21c7 7 10 16 10 26c0 10-3 19-10 26l-139 139l139 138c7 8 10 16 10 26c0 10-3 19-10 26l-22 21c-7 7-16 11-26 11c-10 0-19-4-26-11z"/>
    </symbol>
  
    <symbol id="icon-pencil" viewBox="0 0 512 512">
      <path d="m424 87c11 11 19 22 24 33c5 11 8 19 8 24c0 0 0 9 0 9c0 0-129 129-129 129c0 0-149 147-149 147c0 0-122 27-122 27c0 0 26-123 26-123c0 0 148-148 148-148c0 0 129-129 129-129c19-4 40 6 65 31m-253 328c0 0 12-13 12-13c0-15-9-31-26-48c-8-7-16-13-23-18c-8-4-14-6-18-6c0 0-7-1-7-1c0 0-12 12-12 12c0 0-9 41-9 41c10 5 17 11 24 17c8 9 14 17 18 25c0 0 41-9 41-9"/>
    </symbol>
  
    <symbol id="icon-refresh" viewBox="0 0 512 512">
      <path d="m468 302c0 1 0 1 0 2c-12 51-38 92-77 124c-38 32-84 47-136 47c-28 0-55-5-81-15c-26-11-49-26-69-45l-37 37c-4 3-8 5-13 5c-5 0-9-2-13-5c-4-4-5-8-5-13l0-128c0-5 1-9 5-13c4-4 8-5 13-5l128 0c5 0 9 1 13 5c3 4 5 8 5 13c0 5-2 9-5 13l-39 39c13 12 28 22 46 29c17 7 35 10 53 10c26 0 49-6 71-18c23-13 40-30 54-51c2-4 7-15 15-34c1-4 4-6 8-6l55 0c3 0 5 0 7 2c1 2 2 4 2 7z m7-229l0 128c0 5-1 9-5 13c-4 4-8 5-13 5l-128 0c-5 0-9-1-13-5c-3-4-5-8-5-13c0-5 2-9 5-13l40-39c-28-26-62-39-100-39c-26 0-49 6-71 18c-23 13-40 30-54 51c-2 4-7 15-15 34c-1 4-4 6-8 6l-57 0c-3 0-5 0-7-2c-1-2-2-4-2-7l0-2c12-51 38-92 77-124c39-32 85-47 137-47c28 0 55 5 81 15c26 11 50 26 70 45l37-37c4-3 8-5 13-5c5 0 9 2 13 5c4 4 5 8 5 13z"/>
    </symbol>
  
    <symbol id="icon-chevron-down-1" viewBox="0 0 512 512">
      <path d="m481 231l-212 212c-4 3-8 5-13 5-5 0-9-2-13-5l-212-212c-3-4-5-8-5-13 0-5 2-10 5-13l48-47c3-4 7-6 12-6 5 0 10 2 13 6l152 151 152-151c3-4 8-6 13-6 5 0 9 2 12 6l48 47c3 3 5 8 5 13 0 5-2 9-5 13z"/>
    </symbol>
  
    <symbol id="icon-group" viewBox="0 0 512 512">
      <path d="m158 256c-29 1-52 12-71 34l-35 0c-15 0-27-3-37-11c-10-7-15-17-15-31c0-63 11-94 33-94c1 0 5 1 12 5c6 4 15 8 26 12c10 3 21 5 31 5c12 0 24-2 36-6c-1 7-1 13-1 18c0 24 7 47 21 68z m286 170c0 21-7 38-20 50c-13 13-30 19-51 19l-234 0c-21 0-38-6-51-19c-13-12-20-29-20-50c0-10 1-19 1-28c1-9 2-18 4-29c2-10 4-20 7-29c3-9 7-17 11-26c5-8 11-15 17-21c6-6 14-11 23-15c9-3 19-5 30-5c1 0 5 2 11 6c6 4 12 8 19 13c8 4 17 9 29 12c12 4 24 6 36 6c12 0 24-2 36-6c12-3 21-8 29-12c7-5 13-9 19-13c6-4 10-6 11-6c11 0 21 2 30 5c9 4 17 9 23 15c6 6 12 13 17 21c4 9 8 17 11 26c3 9 5 19 7 29c2 11 3 20 4 29c0 9 1 18 1 28z m-273-341c0 19-7 35-20 49c-14 13-30 20-49 20c-18 0-35-7-48-20c-13-14-20-30-20-49c0-19 7-35 20-48c13-13 30-20 48-20c19 0 35 7 49 20c13 13 20 29 20 48z m187 103c0 28-10 52-30 72c-20 20-44 30-72 30c-28 0-52-10-72-30c-20-20-30-44-30-72c0-29 10-53 30-73c20-20 44-30 72-30c28 0 52 10 72 30c20 20 30 44 30 73z m154 60c0 14-5 24-15 31c-10 8-22 11-37 11l-35 0c-19-22-42-33-71-34c14-21 21-44 21-68c0-5 0-11-1-18c12 4 24 6 36 6c10 0 21-2 31-5c11-4 20-8 26-12c7-4 11-5 12-5c22 0 33 31 33 94z m-34-163c0 19-7 35-20 49c-13 13-30 20-48 20c-19 0-35-7-49-20c-13-14-20-30-20-49c0-19 7-35 20-48c14-13 30-20 49-20c18 0 35 7 48 20c13 13 20 29 20 48z"/>
    </symbol>
  
    <symbol id="icon-group-full" viewBox="0 0 512 512">
      <path d="m128 320c0-32 0-160 0-160c0 0 0-7 4-16c-33 0-68 0-68 0c0 0-32 0-32 32l0 112c0 32 32 32 32 32l0 160l96 0l0-128c0 0-32 0-32-32z m0-192c8 0 16-2 23-6c1-1 2-1 3-2c13-8 22-23 22-40c0-27-21-48-48-48c-27 0-48 21-48 48c0 27 21 48 48 48z m320 16l-68 0c4 9 4 16 4 16c0 0 0 128 0 160c0 32-32 32-32 32l0 128l96 0l0-160c0 0 32 0 32-32c0-32 0-112 0-112c0 0 0-32-32-32z m-90-24c1 1 2 1 3 2c7 4 15 6 23 6c27 0 48-21 48-48c0-27-21-48-48-48c-27 0-48 21-48 48c0 17 9 32 22 40z m-102 8c27 0 48-21 48-48c0-27-21-48-48-48c-27 0-48 21-48 48c0 27 21 48 48 48z m96 48c0 0 0-32-32-32c-8 0-128 0-128 0c0 0-32 0-32 32l0 112c0 32 32 32 32 32l0 160l128 0l0-160c0 0 32 0 32-32c0-32 0-112 0-112z"/>
    </symbol>
  
    <symbol id="icon-ribbon-b" viewBox="0 0 512 512">
      <path d="m256 72c-49 0-88 39-88 88 0 49 39 88 88 88 49 0 88-39 88-88 0-49-39-88-88-88z m0-40c-71 0-128 57-128 128 0 71 57 128 128 128 71 0 128-57 128-128 0-71-57-128-128-128z m0 224c-53 0-96-43-96-96 0-53 43-96 96-96 53 0 96 43 96 96 0 53-43 96-96 96z m-109-2l-83 146 96 0 48 80 48-106 34-74c-11 3-22 4-34 4-44 0-83-19-109-50z m218 0c-15 18-34 31-56 40l-45 98 40 88 48-80 96 0z"/>
    </symbol>
  
    <symbol id="icon-calendar" viewBox="0 0 512 512">
      <path d="m469 48l-69 0l0-32c0-9-7-16-16-16c-9 0-16 7-16 16l0 32l-96 0l0-32c0-9-7-16-16-16c-9 0-16 7-16 16l0 32l-96 0l0-32c0-9-7-16-16-16c-9 0-16 7-16 16l0 32l-69 0c-24 0-43 19-43 43l0 378c0 24 19 43 43 43l426 0c24 0 43-19 43-43l0-378c0-24-19-43-43-43z m11 421c0 6-5 11-11 11l-426 0c-6 0-11-5-11-11l0-378c0-6 5-11 11-11l69 0l0 32c0 9 7 16 16 16c9 0 16-7 16-16l0-32l96 0l0 32c0 9 7 16 16 16c9 0 16-7 16-16l0-32l96 0l0 32c0 9 7 16 16 16c9 0 16-7 16-16l0-32l69 0c6 0 11 5 11 11z m-368-277l64 0l0 48l-64 0z m0 80l64 0l0 48l-64 0z m0 80l64 0l0 48l-64 0z m112 0l64 0l0 48l-64 0z m0-80l64 0l0 48l-64 0z m0-80l64 0l0 48l-64 0z m112 160l64 0l0 48l-64 0z m0-80l64 0l0 48l-64 0z m0-80l64 0l0 48l-64 0z"/>
    </symbol>
  
    <symbol id="icon-bars" viewBox="0 0 512 512">
      <path d="m475 384l0 37c0 5-1 9-5 12-4 4-8 6-13 6l-402 0c-5 0-9-2-13-6-4-3-5-7-5-12l0-37c0-5 1-9 5-13 4-3 8-5 13-5l402 0c5 0 9 2 13 5 4 4 5 8 5 13z m0-146l0 36c0 5-1 10-5 13-4 4-8 6-13 6l-402 0c-5 0-9-2-13-6-4-3-5-8-5-13l0-36c0-5 1-10 5-13 4-4 8-6 13-6l402 0c5 0 9 2 13 6 4 3 5 8 5 13z m0-147l0 37c0 5-1 9-5 13-4 3-8 5-13 5l-402 0c-5 0-9-2-13-5-4-4-5-8-5-13l0-37c0-5 1-9 5-12 4-4 8-6 13-6l402 0c5 0 9 2 13 6 4 3 5 7 5 12z"/>
    </symbol>
  
    <symbol id="icon-comments" viewBox="0 0 512 512">
      <path d="m128 224l256 0l0 64l-256 0z m0-96l256 0l0 64l-256 0z m352-128l-448 0c-18 0-32 14-32 32l0 352c0 18 14 32 32 32l64 0l0 96l144-96l240 0c18 0 32-14 32-32l0-352c0-18-14-32-32-32z m-32 352l-208 0l-80 48l0-48l-96 0l0-288l384 0z"/>
    </symbol>
  
    <symbol id="icon-map" viewBox="0 0 512 512">
      <path d="m504 128c5 3 8 9 8 15c0 0 0 299 0 299c0 7-3 12-8 16c-3 2-6 3-8 3c-3 0-6-1-10-3c0 0-110-70-110-70c0 0-111 70-111 70c-6 3-12 3-17 0c0 0-112-70-112-70c0 0-110 70-110 70c-6 3-12 3-18 0c-5-4-8-9-8-16c0 0 0-299 0-299c0-6 3-12 8-15c0 0 120-75 120-75c6-3 12-3 17 0c0 0 111 70 111 70c0 0 112-70 112-70c5-3 11-3 16 0c0 0 120 75 120 75m-384 230c0 0 0-259 0-259c0 0-86 54-86 54c0 0 0 259 0 259c0 0 86-54 86-54m120 54c0 0 0-259 0-259c0 0-86-54-86-54c0 0 0 259 0 259c0 0 86 54 86 54m119-54c0 0 0-259 0-259c0 0-87 54-87 54c0 0 0 259 0 259c0 0 87-54 87-54m119 54c0 0 0-259 0-259c0 0-86-54-86-54c0 0 0 259 0 259c0 0 86 54 86 54"/>
    </symbol>
  
    <symbol id="icon-chevron-left-1" viewBox="0 0 512 512">
      <path d="m408 86l-152 152 152 151c3 4 5 8 5 13 0 5-2 10-5 13l-48 48c-3 3-8 5-13 5-5 0-9-2-12-5l-212-212c-4-4-6-8-6-13 0-5 2-10 6-13l212-212c3-4 7-6 12-6 5 0 10 2 13 6l48 47c3 4 5 8 5 13 0 5-2 9-5 13z"/>
    </symbol>
  
    <symbol id="icon-rekordlogo" viewBox="0 0 512 512">
      <path d="m20 168c0 4-3 7-7 7-4 0-7-3-7-7 0-4 3-7 7-7 4 0 7 3 7 7z m6-13l61-60m19-13c0 4-3 7-7 7-4 0-7-3-7-7 0-4 3-7 7-7 4 0 7 3 7 7z m7 11l38 22m23 7c0 4-4 7-7 7-4 0-7-3-7-7 0-4 3-7 7-7 3 0 7 3 7 7z m3-15l38-77m16-17c0 4-3 7-7 7-3 0-7-3-7-7 0-4 4-7 7-7 4 0 7 3 7 7z"/>
    </symbol>
  
    <symbol id="icon-rekordlogonarrow-01" viewBox="0 0 512 512">
      <path d="m132 248l31 17-77 145-32-17z m41-7c-19 0-35-16-35-35 0-19 16-35 35-35 20 0 35 16 35 35 0 19-15 35-35 35z m0-52c-9 0-17 8-17 17 0 10 8 17 17 17 10 0 17-7 17-17 0-9-7-17-17-17z m49 45l75 85-27 24-75-85z m212-128l32 17-104 203-32-17z m-395 378c-19 0-35-15-35-35 0-19 16-35 35-35 19 0 35 16 35 35 0 20-16 35-35 35z m0-51c-9 0-17 7-17 17 0 9 7 17 17 17 9 0 17-8 17-17 0-10-8-17-17-17z m280-32c-20 0-35-15-35-35 0-19 15-35 35-35 19 0 35 16 35 35 0 20-16 35-35 35z m0-51c-9 0-17 7-17 17 0 9 7 17 17 17 9 0 17-8 17-17 0-10-8-17-17-17z m156-250c-19 0-35-15-35-35 0-19 16-35 35-35 20 0 35 16 35 35 0 20-15 35-35 35z m0-51c-9 0-17 7-17 17 0 9 8 17 17 17 10 0 17-8 17-17 0-10-7-17-17-17z"/>
    </symbol>
  
    <symbol id="icon-android-cancel" viewBox="0 0 512 512">
      <path d="m256 48c-115 0-208 93-208 208 0 115 93 208 208 208 115 0 208-93 208-208 0-115-93-208-208-208z m104 283l-29 29-75-75-75 75-29-29 75-75-75-75 29-29 75 75 75-75 29 29-75 75z"/>
    </symbol>
  
    <symbol id="icon-pencil-square-o" viewBox="0 0 512 512">
      <path d="m254 338l33-33-44-43-33 33 0 16 28 0 0 27z m125-205c-3-3-6-3-9 0l-100 100c-3 3-3 6 0 9 3 3 6 3 9 0l100-100c3-3 3-6 0-9z m23 169l0 55c0 22-8 42-24 58-16 16-35 24-58 24l-238 0c-22 0-42-8-58-24-16-16-24-36-24-58l0-238c0-23 8-42 24-58 16-16 36-24 58-24l238 0c12 0 23 2 33 7 3 1 5 3 6 6 0 4-1 6-3 9l-14 14c-3 2-6 3-9 2-5-1-9-2-13-2l-238 0c-12 0-23 5-32 14-9 9-13 19-13 32l0 238c0 12 4 23 13 32 9 9 20 13 32 13l238 0c13 0 23-4 32-13 9-9 14-20 14-32l0-36c0-3 1-5 2-7l19-18c2-3 6-4 10-2 3 2 5 4 5 8z m-27-211l82 83-192 192-82 0 0-83z m127 38l-27 26-82-82 26-26c6-5 12-8 20-8 7 0 14 3 19 8l44 43c5 6 8 12 8 20 0 7-3 14-8 19z"/>
    </symbol>
  
    <symbol id="icon-pe-icon-7-stroke" viewBox="0 0 512 512">
      <path d="m42 256c0 118 96 213 214 213 117 0 213-95 213-213 0-118-96-214-213-214-118 0-214 96-214 214z m410 0c0 108-88 196-196 196-109 0-197-88-197-196 0-108 88-196 197-196 108 0 196 88 196 196z m-145 12l12-12-97-97-12 12 84 85-84 84 12 12 49-48z"/>
    </symbol>
  
</svg>
